<svg width="60" height="60" viewBox="0 0 60 60" fill="none" xmlns="http://www.w3.org/2000/svg">
  <circle cx="30" cy="30" r="30" fill="#451D07"></circle>
  <path d="M 46.164 26.472 C 46.131 26.291 46.088 26.117 46.02 25.952 C 46.046 25.911 51.628 18.613 46.457 14.102 C 41.297 9.589 35.272 15.475 35.237 15.507 C 34.279 15.221 33.311 15.049 32.354 14.969 C 32.354 14.969 32.354 14.969 32.345 14.969 C 30.38 14.662 27.622 14.969 27.622 14.969 C 26.673 15.049 25.713 15.221 24.764 15.497 C 24.732 15.467 18.705 9.581 13.544 14.095 C 8.383 18.607 13.955 25.911 13.981 25.944 C 13.921 26.117 13.871 26.291 13.839 26.465 C 13.283 29.587 9.475 30.551 9.475 35.995 C 9.475 41.541 13.452 45.912 21.571 45.912 L 24.899 45.912 C 24.916 45.927 26.201 47.647 28.858 47.749 C 28.858 47.749 29.47 47.811 30.884 47.765 C 33.7 47.765 35.068 45.943 35.078 45.92 L 38.405 45.92 C 46.525 45.92 50.501 41.548 50.501 36.002 C 50.526 30.567 46.718 29.597 46.164 26.472 Z" fill="#FEB72C" style=""></path>
  <g style="" transform="matrix(0.682038, 0, 0, 0.69775, 9.741142, 11.137387)">
    <path d="M29.8586 9.06714L29.6235 9.86557V33.0322L29.8586 33.2668L40.6121 26.9103L29.8586 9.06714Z" fill="#0E0A31"></path>
    <path d="M29.8588 9.06714L19.105 26.9103L29.8588 33.2668V22.0223V9.06714Z" fill="#0E0A31"></path>
    <path d="M29.8586 35.3028L29.7261 35.4643V43.7166L29.8586 44.1034L40.6186 28.9496L29.8586 35.3028Z" fill="#0E0A31"></path>
    <path d="M29.8588 44.1034V35.3028L19.105 28.9496L29.8588 44.1034Z" fill="#0E0A31"></path>
    <path d="M29.8589 33.2667L40.6124 26.9103L29.8589 22.0223V33.2667Z" fill="#0E0A31"></path>
    <path d="M19.105 26.9103L29.8588 33.2667V22.0223L19.105 26.9103Z" fill="#0E0A31"></path>
  </g>
</svg>