<svg width="200" height="200" viewBox="0 0 200 200" fill="none" xmlns="http://www.w3.org/2000/svg">
<circle cx="100" cy="100" r="100" fill="url(#paint0_linear_14684_5991)"/>
<path d="M100.244 192.488C151.189 192.488 192.488 151.189 192.488 100.244C192.488 49.2989 151.189 8 100.244 8C49.2989 8 8 49.2989 8 100.244C8 151.189 49.2989 192.488 100.244 192.488Z" stroke="#002199" stroke-width="3.4626"/>
<path d="M57 50H81.5902V125.41H93.8852V100H106.18V125.41H131.59V150H57V50Z" fill="white"/>
<path d="M119.295 75.4098V50H94.7049V63.1148H106.18V100H131.59V75.4098H143.885V50H131.59V75.4098H119.295Z" fill="white"/>
<defs>
<linearGradient id="paint0_linear_14684_5991" x1="-27.9167" y1="197.667" x2="335.356" y2="-84.0216" gradientUnits="userSpaceOnUse">
<stop offset="0.331609" stop-color="#19163B"/>
<stop offset="1" stop-color="#4C09A2"/>
</linearGradient>
</defs>
</svg>
