<svg width="161" height="160" viewBox="0 0 161 160" fill="none" xmlns="http://www.w3.org/2000/svg">
<circle cx="80.5039" cy="79.998" r="80" fill="url(#paint0_linear_16404_9568)"/>
<path fill-rule="evenodd" clip-rule="evenodd" d="M80.5 155.998C122.474 155.998 156.5 121.972 156.5 79.998C156.5 38.0244 122.474 3.99805 80.5 3.99805C38.5264 3.99805 4.5 38.0244 4.5 79.998C4.5 121.972 38.5264 155.998 80.5 155.998ZM80.498 151.996C120.263 151.996 152.498 119.761 152.498 79.9961C152.498 40.2316 120.263 7.99609 80.498 7.99609C40.7335 7.99609 8.49805 40.2316 8.49805 79.9961C8.49805 119.761 40.7335 151.996 80.498 151.996Z" fill="url(#paint1_linear_16404_9568)"/>
<g clip-path="url(#clip0_16404_9568)">
<path d="M42.7539 35.6582H64.0841V101.071H74.7492V79.0296H85.4143V101.071H107.456V122.401H42.7539V35.6582Z" fill="#180E61"/>
<path d="M96.7904 57.6994V35.6582H75.4602V47.0343H85.4143V79.0296H107.456V57.6994H118.121V35.6582H107.456V57.6994H96.7904Z" fill="#180E61"/>
</g>
<defs>
<linearGradient id="paint0_linear_16404_9568" x1="-21.8294" y1="158.131" x2="268.789" y2="-67.2193" gradientUnits="userSpaceOnUse">
<stop offset="0.14815" stop-color="#A8A8A8"/>
<stop offset="0.331609" stop-color="#DBDBDB"/>
<stop offset="1" stop-color="white"/>
</linearGradient>
<linearGradient id="paint1_linear_16404_9568" x1="-16.7167" y1="154.225" x2="259.371" y2="-59.8584" gradientUnits="userSpaceOnUse">
<stop stop-color="white"/>
<stop offset="0.668391" stop-color="#A8A8A8"/>
<stop offset="0.85185" stop-color="#DBDBDB"/>
</linearGradient>
<clipPath id="clip0_16404_9568">
<rect width="88" height="88" fill="white" transform="translate(36 35.5)"/>
</clipPath>
</defs>
</svg>
