<svg width="26" height="26" viewBox="0 0 26 26" fill="none" xmlns="http://www.w3.org/2000/svg">
  <rect x="1" y="1" width="24" height="24" rx="12" fill="url(#paint0_linear_10825_3524)"/>
  <rect x="0.5" y="0.5" width="25" height="25" rx="12.5" stroke="white" stroke-opacity="0.2"/>
  <g clip-path="url(#clip0_10825_3524)">
    <path fill-rule="evenodd" clip-rule="evenodd" d="M12.8933 15.7272L7.81903 13.078V13.0825C7.76412 13.0505 7.72294 13.0002 7.70464 12.9407C7.68634 12.8812 7.69549 12.8171 7.72752 12.7622L12.8017 4.1054C12.8841 3.96356 13.1129 3.96356 13.1952 4.1054L18.2695 12.7577C18.3015 12.8126 18.3106 12.8766 18.2923 12.9361C18.274 13.0002 18.2329 13.0505 18.1779 13.078L13.1037 15.7272C13.0717 15.7455 13.0351 15.7546 12.9985 15.7546C12.9619 15.7546 12.9253 15.7455 12.8933 15.7272ZM17.7524 12.7851L12.9985 4.67277L8.24455 12.7851L12.9985 15.265L17.7524 12.7851ZM18.3 14.7481V14.7619V14.771L18.2908 14.7664V18.5321V18.5458V18.5687C18.2896 18.5724 18.2884 18.5757 18.2872 18.5788C18.2841 18.5873 18.2817 18.594 18.2817 18.6007C18.2794 18.6053 18.2771 18.611 18.2748 18.6167C18.2725 18.6224 18.2702 18.6282 18.2679 18.6327V18.6465L18.2634 18.651C18.2611 18.6556 18.2577 18.659 18.2542 18.6625C18.2508 18.6659 18.2474 18.6693 18.2451 18.6739C18.2359 18.6876 18.2268 18.6968 18.213 18.7059C18.2039 18.7105 18.1947 18.7242 18.1947 18.7242L13.1205 21.9591H13.1114C13.1068 21.9591 13.1022 21.9637 13.1022 21.9637C13.0702 21.982 13.0336 21.9911 12.997 21.9911C12.9604 21.9911 12.9238 21.982 12.8917 21.9637C12.8872 21.9637 12.8826 21.9591 12.8826 21.9591H12.8734L7.79921 18.7242C7.79283 18.7211 7.78867 18.7156 7.78519 18.7111C7.78368 18.7091 7.78229 18.7073 7.78091 18.7059C7.77801 18.703 7.77465 18.7001 7.77113 18.6971C7.76352 18.6905 7.75513 18.6833 7.74888 18.6739L7.74888 18.6739C7.7443 18.6693 7.73515 18.6602 7.73058 18.651L7.726 18.6465V18.6327C7.72474 18.6302 7.72314 18.6277 7.72148 18.6251C7.71709 18.6182 7.71228 18.6107 7.71228 18.6007C7.71105 18.597 7.70982 18.5937 7.70869 18.5906C7.70558 18.5821 7.70312 18.5754 7.70312 18.5687V18.5458V18.5321V14.7664V14.7573V14.7436C7.7077 14.6978 7.726 14.6566 7.75346 14.6246V14.6154H7.75803C7.76261 14.6109 7.77176 14.6017 7.78091 14.5971L7.82209 14.5697L7.82209 14.5697C7.83124 14.5651 7.84039 14.5605 7.84954 14.5605C7.86784 14.556 7.88614 14.5514 7.90445 14.5514H7.92275H7.93648C7.95164 14.5514 7.96366 14.5545 7.97774 14.5582C7.98066 14.559 7.98367 14.5598 7.98681 14.5605C7.99596 14.5605 8.00968 14.5651 8.01883 14.5697H8.03256L13.0061 17.315L17.9705 14.5743H17.9843C17.9934 14.5697 18.0071 14.5651 18.0163 14.5651C18.03 14.5605 18.0483 14.556 18.0666 14.556H18.0803H18.0987C18.1124 14.556 18.1307 14.5605 18.149 14.5651C18.1627 14.5651 18.1719 14.5697 18.181 14.5743C18.1902 14.5773 18.1993 14.5844 18.2085 14.5916C18.213 14.5951 18.2176 14.5987 18.2222 14.6017C18.2241 14.6036 18.2268 14.6055 18.2299 14.6077C18.2343 14.6109 18.2397 14.6147 18.2451 14.62H18.2496V14.6292C18.2771 14.6612 18.3 14.7024 18.3 14.7481ZM9.51045 17.347L8.15152 15.4756V18.134L9.51045 17.347ZM12.1048 20.9296L9.7804 17.7222L8.362 18.5458L12.1048 20.9296ZM16.4835 17.3516L17.8424 18.1386V15.4802L16.4835 17.3516ZM17.632 18.5458L16.2135 17.7222L13.8892 20.9296L17.632 18.5458ZM13.1068 17.7725C13.0382 17.8091 12.9558 17.8091 12.8872 17.7725L8.70973 15.4665L12.997 21.378L17.2842 15.4665L13.1068 17.7725Z" fill="white"/>
  </g>
  <defs>
    <linearGradient id="paint0_linear_10825_3524" x1="-2.35" y1="24.72" x2="41.2428" y2="-9.0826" gradientUnits="userSpaceOnUse">
      <stop offset="0.331609" stop-color="#19163B"/>
      <stop offset="1" stop-color="#4C09A2"/>
    </linearGradient>
    <clipPath id="clip0_10825_3524">
      <rect width="10.606" height="18" fill="white" transform="translate(7.69531 4)"/>
    </clipPath>
  </defs>
</svg>

